<svg xmlns="http://www.w3.org/2000/svg" viewBox="0 0 237.67 237.67"><defs><style>.cls-1{fill:#f7bc0d;}</style></defs><g id="Layer_2" data-name="Layer 2"><g id="Capa_1" data-name="Capa 1"><path class="cls-1" d="M118.84,0A118.84,118.84,0,1,0,237.67,118.84,118.83,118.83,0,0,0,118.84,0Zm0,225.37A106.54,106.54,0,1,1,225.37,118.84,106.54,106.54,0,0,1,118.84,225.37Z"></path><polygon class="cls-1" points="203.98 114.75 206.54 119.94 212.28 120.78 208.13 124.83 209.11 130.54 203.98 127.84 198.85 130.54 199.83 124.83 195.68 120.78 201.41 119.94 203.98 114.75"></polygon><polygon class="cls-1" points="39.14 111.06 41.7 116.26 47.44 117.1 43.29 121.14 44.27 126.86 39.14 124.16 34.01 126.86 34.99 121.14 30.84 117.1 36.57 116.26 39.14 111.06"></polygon><path class="cls-1" d="M94.94,172.6H76V83.93H62.08V65.43H94.94Z"></path><path class="cls-1" d="M134.08,154h42.65V172.6H109V153.18l39.59-38.07c.62-.61,1.43-1.5,2.45-2.67a33.23,33.23,0,0,0,3-4,27,27,0,0,0,2.45-5,15.93,15.93,0,0,0-3.75-16.82,16.07,16.07,0,0,0-5.12-3.28,16.46,16.46,0,0,0-6.34-1.23,15.82,15.82,0,0,0-10.55,4,22.94,22.94,0,0,0-6.88,11.09l-16.67-5.51a46.17,46.17,0,0,1,5.43-11.08,40,40,0,0,1,8-8.79,36.62,36.62,0,0,1,9.71-5.73,29.44,29.44,0,0,1,11-2.07,36.67,36.67,0,0,1,14.21,2.68,33.31,33.31,0,0,1,18.2,17.89,31.6,31.6,0,0,1,2.6,12.61,36.28,36.28,0,0,1-1.3,10,38,38,0,0,1-3.44,8.26,44.53,44.53,0,0,1-4.9,7,80.8,80.8,0,0,1-5.65,6Z"></path></g></g></svg>